<svg width="24" height="24" viewBox="0 0 24 24" fill="none" xmlns="http://www.w3.org/2000/svg">
    <path d="M22.75 15.5C22.75 19.7812 19.25 23.25 15 23.25C10.7188 23.25 7.25 19.7812 7.25 15.5C7.25 11.25 10.7188 7.75 15 7.75C19.25 7.75 22.75 11.25 22.75 15.5ZM14.0938 19.625L19.8438 13.875C20.0312 13.6875 20.0312 13.3438 19.8438 13.1562L19.125 12.4688C18.9375 12.25 18.625 12.25 18.4375 12.4688L13.75 17.1562L11.5312 14.9688C11.3438 14.75 11.0312 14.75 10.8438 14.9688L10.125 15.6562C9.9375 15.8438 9.9375 16.1875 10.125 16.375L13.375 19.625C13.5625 19.8125 13.9062 19.8125 14.0938 19.625Z"
          fill="#001A31"/>
</svg>